<svg xmlns="http://www.w3.org/2000/svg" width="78" height="32" viewBox="0 0 78 32" fill="none">
  <g clip-path="url(#clip0_3_264)">
    <path d="M10.608 0.367828H13.416V13.8457C13.416 18.1281 10.244 20.4138 6.99402 20.4138C3.38002 20.4138 0.546021 17.4975 0.546021 13.9507C0.546021 10.3514 3.30202 7.4877 6.96802 7.4877C9.25602 7.4877 10.582 8.64369 10.582 8.64369L10.608 0.367828ZM6.99402 17.6815C9.04802 17.6815 10.608 16.0788 10.608 13.9507C10.608 11.7176 8.99602 10.22 6.99402 10.22C4.96602 10.22 3.38002 11.7701 3.38002 13.9507C3.38002 16.0788 4.96602 17.6815 6.99402 17.6815Z" fill="white"/>
    <path d="M22.5681 14.4499V7.61905H25.3761V14.4499C25.3761 18.7849 22.5941 20.4138 20.0201 20.4138C17.4981 20.4138 14.6901 18.8112 14.6901 14.4499V7.61905H17.4981V14.4499C17.4981 16.6568 18.5381 17.6814 19.9941 17.6814C21.5281 17.6814 22.5681 16.6305 22.5681 14.4499Z" fill="white"/>
    <path d="M29.484 13.4516V20.2824H26.676V13.4516C26.676 9.09033 29.458 7.4877 32.006 7.4877C34.554 7.4877 37.362 9.1166 37.362 13.4516V20.2824H34.554V13.4516C34.554 11.2972 33.514 10.22 32.032 10.22C30.524 10.1938 29.484 11.2447 29.484 13.4516Z" fill="white"/>
    <path d="M41.86 20.4138C39.884 20.4138 38.376 19.4943 38.376 19.4943V16.7356C38.376 16.7356 39.91 17.6815 41.86 17.6815C42.588 17.6815 43.576 17.4713 43.576 16.4992C43.576 14.5025 38.22 15.2644 38.22 11.1921C38.22 8.85388 40.17 7.4877 42.64 7.4877C44.668 7.4877 45.864 8.30215 45.864 8.30215V10.9557C45.864 10.9557 44.564 10.2463 42.64 10.2463C42.12 10.2463 41.054 10.404 41.054 11.2184C41.054 12.9787 46.41 12.2168 46.41 16.5255C46.384 18.9425 44.564 20.4138 41.86 20.4138Z" fill="white"/>
    <path d="M52.7021 20.2824H52.1041C49.6081 20.2824 47.2681 19.1527 47.2681 15.2118V1.97046H50.0501V7.61906H52.4681V10.3514H50.0501V15.1856C50.0501 16.6831 50.5701 17.5238 52.1041 17.5238H52.7021V20.2824Z" fill="white"/>
    <path d="M62.608 19.2578C62.608 19.2578 61.282 20.4138 58.994 20.4138C55.328 20.4138 52.572 17.5238 52.572 13.9508C52.572 10.3777 55.38 7.4877 58.994 7.4877C62.244 7.4877 65.416 9.77342 65.416 14.0558V20.2824H62.608V19.2578ZM58.994 17.6815C60.996 17.6815 62.608 16.1577 62.608 13.9508C62.608 11.8227 61.048 10.22 58.994 10.22C56.966 10.22 55.38 11.8227 55.38 13.9508C55.38 16.1314 56.966 17.6815 58.994 17.6815Z" fill="white"/>
    <path d="M69.5501 13.4516V20.2824H66.7421V13.4516C66.7421 9.09033 69.5241 7.4877 72.0721 7.4877C74.6201 7.4877 77.4281 9.1166 77.4281 13.4516V20.2824H74.6201V13.4516C74.6201 11.2972 73.5801 10.22 72.0981 10.22C70.5641 10.1938 69.5501 11.2447 69.5501 13.4516Z" fill="white"/>
    <path d="M0.572021 24.3547H1.01402V26.2726C1.24802 25.8259 1.71602 25.5895 2.28802 25.5895C3.09402 25.5895 3.74402 26.1149 3.74402 27.1658V29.3202H3.30202V27.2184C3.30202 26.4039 2.86002 25.9836 2.18402 25.9836C1.50802 25.9836 1.01402 26.4039 1.01402 27.2972V29.2939H0.572021V24.3547Z" fill="white"/>
    <path d="M6.31805 25.6158C7.04605 25.6158 7.54005 26.0099 7.77405 26.4828V25.6683H8.21605V29.3465H7.77405V28.532C7.54005 28.9787 7.07205 29.399 6.31805 29.399C5.33005 29.399 4.57605 28.6634 4.57605 27.5074C4.57605 26.3514 5.33005 25.6158 6.31805 25.6158ZM6.39605 26.0099C5.64205 26.0099 5.04405 26.5616 5.04405 27.4811C5.04405 28.4007 5.64205 28.9787 6.39605 28.9787C7.12405 28.9787 7.74805 28.4007 7.74805 27.4811C7.74805 26.5879 7.12405 26.0099 6.39605 26.0099ZM5.69405 24.8539C5.69405 24.67 5.82405 24.5386 6.00605 24.5386C6.18805 24.5386 6.31805 24.67 6.31805 24.8539C6.31805 25.0378 6.18805 25.1691 6.00605 25.1691C5.82405 25.1691 5.69405 25.0115 5.69405 24.8539ZM6.70805 24.8539C6.70805 24.67 6.83805 24.5386 7.02005 24.5386C7.20205 24.5386 7.33205 24.67 7.33205 24.8539C7.33205 25.0378 7.20205 25.1691 7.02005 25.1691C6.86405 25.1691 6.70805 25.0115 6.70805 24.8539Z" fill="white"/>
    <path d="M10.53 29.399C9.69797 29.399 9.09997 28.9786 9.04797 28.3218H9.54197C9.56797 28.7159 9.93197 29.0049 10.53 29.0049C11.05 29.0049 11.362 28.7159 11.362 28.3744C11.362 27.4548 9.17797 28.0066 9.17797 26.6141C9.17797 26.0624 9.69797 25.6158 10.452 25.6158C11.206 25.6158 11.752 26.0361 11.778 26.7455H11.336C11.31 26.3514 10.998 26.0361 10.452 26.0361C9.95797 26.0361 9.64597 26.2988 9.64597 26.6141C9.64597 27.6125 11.804 27.0607 11.83 28.4006C11.778 28.9786 11.284 29.399 10.53 29.399Z" fill="white"/>
    <path d="M12.818 26.0624H12.298V25.6683H12.818V24.7488H13.312V25.6683H14.3V26.0624H13.312V28.3481C13.312 28.7948 13.442 28.9524 13.884 28.9524H14.3V29.3465H13.78C13.156 29.3465 12.818 29.0838 12.818 28.3481V26.0624Z" fill="white"/>
    <path d="M14.7161 26.6404H17.2901V27.0345H14.7161V26.6404Z" fill="white"/>
    <path d="M23.764 29.3465L22.568 28.0328C22.568 28.0591 22.568 28.0854 22.568 28.1117C22.568 28.1642 22.568 28.243 22.542 28.3481C22.516 28.6634 22.36 28.8998 22.152 29.0837C21.918 29.2939 21.632 29.3727 21.32 29.3727C21.06 29.3727 20.8 29.3202 20.592 29.1888C20.358 29.0837 20.202 28.8998 20.072 28.6897C19.968 28.4532 19.89 28.243 19.89 27.954C19.89 27.665 19.942 27.4286 20.072 27.2184C20.176 27.0082 20.332 26.8506 20.514 26.7718C20.722 26.6667 20.904 26.5878 21.138 26.5878C21.216 26.5878 21.32 26.5879 21.398 26.6141C21.32 26.509 21.268 26.4828 21.268 26.4302C21.138 26.2463 21.008 26.1149 20.93 25.9836C20.852 25.8522 20.826 25.6683 20.826 25.4581C20.826 25.2742 20.878 25.1166 20.956 24.9327C21.034 24.7488 21.19 24.6437 21.346 24.5386C21.528 24.4598 21.736 24.4072 21.996 24.4072C22.386 24.4072 22.672 24.5123 22.88 24.7225C23.088 24.9327 23.192 25.1691 23.218 25.4844C23.244 25.5895 23.244 25.7209 23.244 25.8259H22.802C22.802 25.7997 22.802 25.7734 22.802 25.7209C22.802 25.6683 22.802 25.642 22.802 25.642C22.802 25.3793 22.75 25.1954 22.594 25.0378C22.464 24.9064 22.256 24.8276 22.022 24.8276C21.788 24.8276 21.632 24.8801 21.476 25.0378C21.346 25.1691 21.268 25.3268 21.268 25.5369C21.268 25.7209 21.294 25.8259 21.346 25.931C21.398 26.0361 21.476 26.1675 21.632 26.2989L24.232 29.2939L23.764 29.3465ZM22.048 28.7159C22.23 28.532 22.308 28.3218 22.308 28.0328C22.308 27.8227 22.256 27.665 22.178 27.5074C22.074 27.3235 21.944 27.2184 21.788 27.1396C21.606 27.0608 21.45 27.0082 21.268 27.0082C21.008 27.0082 20.774 27.087 20.644 27.2709C20.514 27.4548 20.384 27.665 20.384 27.9803C20.384 28.2956 20.462 28.5583 20.67 28.7159C20.878 28.8998 21.086 29.0049 21.372 29.0049C21.658 28.9787 21.866 28.8736 22.048 28.7159Z" fill="white"/>
    <path d="M28.132 25.6158C28.834 25.6158 29.354 26.0098 29.588 26.4827V25.6683H30.03V29.4253C30.03 30.4499 29.328 31.133 28.34 31.133C27.404 31.133 26.754 30.6338 26.598 29.8719H27.04C27.17 30.3711 27.664 30.7126 28.314 30.7126C28.99 30.7126 29.536 30.266 29.536 29.4253V28.5057C29.302 28.9524 28.834 29.3727 28.08 29.3727C27.092 29.3727 26.338 28.6371 26.338 27.4811C26.338 26.3251 27.144 25.6158 28.132 25.6158ZM28.236 26.0098C27.482 26.0098 26.884 26.5616 26.884 27.4811C26.884 28.4006 27.482 28.9786 28.236 28.9786C28.964 28.9786 29.588 28.4006 29.588 27.4811C29.588 26.5878 28.99 26.0098 28.236 26.0098Z" fill="white"/>
    <path d="M32.6561 25.6158C33.3841 25.6158 33.8781 26.0099 34.1121 26.4828V25.6683H34.5541V29.3465H34.1121V28.532C33.8781 28.9787 33.4101 29.399 32.6561 29.399C31.6681 29.399 30.9141 28.6634 30.9141 27.5074C30.9141 26.3514 31.6681 25.6158 32.6561 25.6158ZM32.7341 26.0099C31.9801 26.0099 31.3821 26.5616 31.3821 27.4811C31.3821 28.4007 31.9801 28.9787 32.7341 28.9787C33.4621 28.9787 34.0861 28.4007 34.0861 27.4811C34.0861 26.5878 33.4621 26.0099 32.7341 26.0099ZM33.5401 24.5649C33.5401 24.9852 33.2281 25.2217 32.8641 25.2217C32.5001 25.2217 32.1881 24.959 32.1881 24.5649C32.1881 24.1708 32.5001 23.8818 32.8641 23.8818C33.2281 23.908 33.5401 24.1445 33.5401 24.5649ZM33.2541 24.5649C33.2541 24.3021 33.0721 24.1708 32.8641 24.1708C32.6301 24.1708 32.4741 24.3021 32.4741 24.5649C32.4741 24.8276 32.6561 24.959 32.8641 24.959C33.0721 24.9852 33.2541 24.8276 33.2541 24.5649Z" fill="white"/>
    <path d="M36.088 29.3465H35.62V25.6683H36.062V26.3251C36.27 25.8785 36.686 25.6158 37.31 25.6158V26.1149H37.206C36.608 26.1149 36.088 26.4039 36.088 27.3235V29.3465Z" fill="white"/>
    <path d="M39.5721 25.6158C40.2221 25.6158 40.7681 25.9836 41.0281 26.4828V24.381H41.4701V29.3727H41.0281V28.532C40.7941 29.0312 40.3261 29.4253 39.5721 29.4253C38.5841 29.4253 37.8301 28.6897 37.8301 27.5337C37.8301 26.3777 38.5581 25.6158 39.5721 25.6158ZM39.6501 26.0098C38.8961 26.0098 38.2981 26.5616 38.2981 27.4811C38.2981 28.4007 38.8961 28.9787 39.6501 28.9787C40.3781 28.9787 41.0021 28.4007 41.0021 27.4811C41.0021 26.5878 40.3781 26.0098 39.6501 26.0098Z" fill="white"/>
    <path d="M43.784 29.399C42.952 29.399 42.354 28.9786 42.302 28.3218H42.796C42.822 28.7159 43.186 29.0049 43.784 29.0049C44.304 29.0049 44.616 28.7159 44.616 28.3744C44.616 27.4548 42.432 28.0066 42.432 26.6141C42.432 26.0624 42.952 25.6158 43.706 25.6158C44.46 25.6158 45.006 26.0361 45.032 26.7455H44.59C44.564 26.3514 44.252 26.0361 43.706 26.0361C43.212 26.0361 42.9 26.2988 42.9 26.6141C42.9 27.6125 45.058 27.0607 45.084 28.4006C45.032 28.9786 44.538 29.399 43.784 29.399Z" fill="white"/>
    <path d="M46.046 26.0624H45.526V25.6683H46.046V25.4056C46.046 24.5911 46.41 24.2233 47.32 24.2233V24.6174C46.696 24.6174 46.488 24.8539 46.488 25.3793V25.642H47.346V26.0361H46.488V29.2939H46.046V26.0624Z" fill="white"/>
    <path d="M49.686 29.399C48.672 29.399 47.866 28.6897 47.866 27.5074C47.866 26.3251 48.672 25.6158 49.686 25.6158C50.7 25.6158 51.506 26.3251 51.506 27.5074C51.532 28.6897 50.7 29.399 49.686 29.399ZM49.686 29.0049C50.362 29.0049 51.038 28.5583 51.038 27.5074C51.038 26.4565 50.388 26.0099 49.712 26.0099C49.036 26.0099 48.386 26.4565 48.386 27.5074C48.386 28.5583 49.01 29.0049 49.686 29.0049ZM48.906 24.8276C48.906 24.6437 49.036 24.5123 49.218 24.5123C49.4 24.5123 49.53 24.6437 49.53 24.8276C49.53 25.0115 49.4 25.1429 49.218 25.1429C49.036 25.0903 48.906 24.9852 48.906 24.8276ZM49.92 24.8276C49.92 24.6437 50.05 24.5123 50.232 24.5123C50.414 24.5123 50.544 24.6437 50.544 24.8276C50.544 25.0115 50.414 25.1429 50.232 25.1429C50.05 25.0903 49.92 24.9852 49.92 24.8276Z" fill="white"/>
    <path d="M52.832 29.3465H52.39V25.6683H52.832V26.3251C53.04 25.8785 53.456 25.6158 54.08 25.6158V26.1149H53.976C53.378 26.1149 52.858 26.4039 52.858 27.3235V29.3465H52.832Z" fill="white"/>
    <path d="M56.03 29.399C55.198 29.399 54.6 28.9786 54.548 28.3218H55.042C55.068 28.7159 55.432 29.0049 56.03 29.0049C56.55 29.0049 56.862 28.7159 56.862 28.3744C56.862 27.4548 54.678 28.0066 54.678 26.6141C54.678 26.0624 55.198 25.6158 55.952 25.6158C56.706 25.6158 57.252 26.0361 57.278 26.7455H56.836C56.81 26.3514 56.498 26.0361 55.952 26.0361C55.458 26.0361 55.146 26.2988 55.146 26.6141C55.146 27.6125 57.304 27.0607 57.33 28.4006C57.304 28.9786 56.784 29.399 56.03 29.399Z" fill="white"/>
    <path d="M59.696 25.6158C60.424 25.6158 60.918 26.0099 61.152 26.4828V25.6683H61.594V29.3465H61.152V28.532C60.918 28.9787 60.45 29.399 59.696 29.399C58.708 29.399 57.954 28.6634 57.954 27.5074C57.954 26.3514 58.708 25.6158 59.696 25.6158ZM59.774 26.0099C59.02 26.0099 58.422 26.5616 58.422 27.4811C58.422 28.4007 59.02 28.9787 59.774 28.9787C60.502 28.9787 61.126 28.4007 61.126 27.4811C61.152 26.5879 60.554 26.0099 59.774 26.0099ZM59.098 24.8539C59.098 24.67 59.228 24.5386 59.41 24.5386C59.592 24.5386 59.722 24.67 59.722 24.8539C59.722 25.0378 59.592 25.1691 59.41 25.1691C59.202 25.1691 59.098 25.0115 59.098 24.8539ZM60.112 24.8539C60.112 24.67 60.242 24.5386 60.424 24.5386C60.606 24.5386 60.736 24.67 60.736 24.8539C60.736 25.0378 60.606 25.1691 60.424 25.1691C60.268 25.1691 60.112 25.0115 60.112 24.8539Z" fill="white"/>
    <path d="M62.66 24.3547H63.102V27.2972L64.584 25.6683H65.234L63.492 27.5074L65.234 29.3465H64.61L63.102 27.6913V29.3465H62.66V24.3547Z" fill="white"/>
    <path d="M66.326 29.3465H65.884V25.6683H66.326V26.3251C66.534 25.8785 66.95 25.6158 67.574 25.6158V26.1149H67.47C66.872 26.1149 66.352 26.4039 66.352 27.3235L66.326 29.3465Z" fill="white"/>
    <path d="M68.172 24.6174C68.172 24.4072 68.302 24.2759 68.51 24.2759C68.718 24.2759 68.848 24.4072 68.848 24.6174C68.848 24.8276 68.718 24.959 68.51 24.959C68.302 24.959 68.172 24.8276 68.172 24.6174ZM68.276 25.6683H68.718V29.3465H68.276V25.6683Z" fill="white"/>
    <path d="M72.5401 27.2447C72.5401 26.4302 72.0981 26.0099 71.4221 26.0099C70.7461 26.0099 70.2521 26.4302 70.2521 27.3235V29.3202H69.8101V25.6421H70.2521V26.2726C70.4861 25.826 70.9541 25.5895 71.5001 25.5895C72.3321 25.5895 72.9821 26.115 72.9821 27.1659V29.3202H72.5401V27.2447Z" fill="white"/>
    <path d="M75.5301 25.6158C76.2321 25.6158 76.7521 26.0098 76.9861 26.4827V25.6683H77.4281V29.4253C77.4281 30.4499 76.7261 31.133 75.7381 31.133C74.8021 31.133 74.1521 30.6338 73.9961 29.8719H74.4381C74.5681 30.3711 75.0621 30.7126 75.7121 30.7126C76.3881 30.7126 76.9341 30.266 76.9341 29.4253V28.5057C76.7001 28.9524 76.2321 29.3727 75.4781 29.3727C74.4901 29.3727 73.7361 28.6371 73.7361 27.4811C73.7361 26.3251 74.5421 25.6158 75.5301 25.6158ZM75.6341 26.0098C74.8801 26.0098 74.2821 26.5616 74.2821 27.4811C74.2821 28.4006 74.8801 28.9786 75.6341 28.9786C76.3621 28.9786 76.9861 28.4006 76.9861 27.4811C76.9861 26.5878 76.3881 26.0098 75.6341 26.0098Z" fill="white"/>
  </g>
</svg>